<?xml version="1.0" encoding="utf-8"?>
<!-- Generator: Adobe Illustrator 16.0.0, SVG Export Plug-In . SVG Version: 6.00 Build 0)  -->
<!DOCTYPE svg PUBLIC "-//W3C//DTD SVG 1.1//EN" "http://www.w3.org/Graphics/SVG/1.1/DTD/svg11.dtd">
<svg version="1.1" id="Capa_1" xmlns="http://www.w3.org/2000/svg" xmlns:xlink="http://www.w3.org/1999/xlink" x="0px" y="0px"
	 width="772px" height="792px" viewBox="-79.5 0 772 792" enable-background="new -79.5 0 772 792" xml:space="preserve">
<circle fill="#FFFFFF" stroke="#DC9628" stroke-width="11" stroke-linecap="round" stroke-linejoin="round" stroke-miterlimit="10" cx="306" cy="401.1" r="363"/>
<g>
	<path fill="none" stroke="#DC9628" stroke-width="2" stroke-linecap="round" stroke-linejoin="round" stroke-miterlimit="10" d="
		M346.8,212.4v-40.8c0-22.532-18.268-40.8-40.8-40.8c-22.532,0-40.8,18.269-40.8,40.8v41.534"/>
	<path fill="#FF9800" d="M168.208,606.508c109.15,18.839,169.912,18.839,279.072,0l96.798-16.708l0,0
		c-47.787-47.501-74.634-106.232-74.634-173.399v-91.8c0.388-61.68-40.361-106.875-81.049-125.47
		c-50.989-23.307-110.313-23.399-161.221,0.082c-40.32,18.595-83.987,63.76-84.375,125.389v91.8
		c0,67.167-23.613,125.898-71.4,173.399l0,0L168.208,606.508z"/>
	<path fill="#FFFFFF" d="M193.8,355.108c-0.02,0-0.041,0-0.061,0c-5.63-0.041-10.169-4.631-10.139-10.261
		c0.306-47.756,38.271-77.959,60.669-88.271c39.26-18.105,87.659-18.074,127.184-0.021c5.121,2.336,7.375,8.385,5.039,13.515
		c-2.336,5.121-8.385,7.385-13.525,5.029c-34.211-15.637-76.184-15.678-110.149,0c-18.023,8.303-48.573,32.364-48.807,69.87
		C203.969,350.58,199.4,355.108,193.8,355.108z"/>
	<path fill="#B77620" d="M223.441,614.892c14.729,33.334,46.94,56.509,84.425,56.509c37.495,0,69.707-23.185,84.436-56.539
		C331.837,622.532,283.866,622.542,223.441,614.892z"/>
	<path fill="#F2ECBF" d="M41.769,497.663c-2.611,0-5.223-0.999-7.211-2.988C12.271,472.388,0,442.716,0,411.127
		c0-31.6,12.271-61.262,34.558-83.539c3.988-3.988,10.435-3.988,14.423,0c3.988,3.988,3.988,10.435,0,14.423
		C30.549,360.443,20.4,384.984,20.4,411.127c0,26.143,10.149,50.684,28.581,69.115c3.988,3.987,3.988,10.435,0,14.423
		C46.981,496.664,44.38,497.663,41.769,497.663z"/>
	<path fill="#F2ECBF" d="M84.711,474.438c-2.611,0-5.222-1-7.211-2.989c-34.037-34.037-34.037-89.434,0-123.46
		c3.988-3.988,10.435-3.988,14.423,0c3.988,3.988,3.988,10.435,0,14.422c-26.091,26.092-26.091,68.534,0,94.615
		c3.988,3.988,3.988,10.435,0,14.423C89.934,473.448,87.322,474.438,84.711,474.438z"/>
	<path fill="#F2ECBF" d="M570.23,497.663c-2.61,0-5.222-0.999-7.211-2.988c-3.988-3.988-3.988-10.435,0-14.423
		c18.432-18.441,28.58-42.982,28.58-69.125c0-26.143-10.148-50.694-28.58-69.116c-3.988-3.988-3.988-10.435,0-14.422
		c3.988-3.988,10.435-3.988,14.423,0C599.729,349.875,612,379.537,612,411.127c0,31.589-12.271,61.261-34.558,83.538
		C575.453,496.664,572.842,497.663,570.23,497.663z"/>
	<path fill="#F2ECBF" d="M527.289,474.438c-2.611,0-5.223-1-7.212-2.989c-3.987-3.988-3.987-10.435,0-14.423
		c26.092-26.092,26.092-68.534,0-94.615c-3.987-3.988-3.987-10.435,0-14.422c3.988-3.988,10.435-3.988,14.423,0
		c34.038,34.037,34.038,89.433,0,123.46C532.512,473.448,529.9,474.438,527.289,474.438z"/>
</g>
</svg>
