<?xml version="1.0" encoding="utf-8"?>
<!-- Generator: Adobe Illustrator 16.0.0, SVG Export Plug-In . SVG Version: 6.00 Build 0)  -->
<!DOCTYPE svg PUBLIC "-//W3C//DTD SVG 1.1//EN" "http://www.w3.org/Graphics/SVG/1.1/DTD/svg11.dtd">
<svg version="1.1" id="Capa_1" xmlns="http://www.w3.org/2000/svg" xmlns:xlink="http://www.w3.org/1999/xlink" x="0px" y="0px"
	 width="16.877px" height="16.877px" viewBox="0 0 16.877 16.877" enable-background="new 0 0 16.877 16.877" xml:space="preserve">
<g>
	<path fill="#FFFFFF" d="M11.372,5.34l-0.619-0.619l-0.665-0.664c-0.235-0.234-0.235-0.616-0.003-0.848l3.036-3.039
		c0.233-0.23,0.61-0.226,0.843,0.007c0.504,0.504,1.006,1.008,1.51,1.511l-3.897,3.899C11.517,5.499,11.448,5.417,11.372,5.34z
		 M6.46,12.239L2.459,16.24c0.956,0.932,3.33,0.819,5.418-0.199c0.896-0.437,1.712-1.001,2.485-1.59
		c0.771-0.586,1.492-1.232,2.172-1.913c0.677-0.682,1.32-1.408,1.906-2.176c0.586-0.774,1.154-1.588,1.592-2.49
		c1.021-2.085,1.14-4.458,0.209-5.415l-4,4.001c0.234,0.634,0.146,1.387-0.303,1.907c-0.551,0.641-1.131,1.251-1.725,1.848
		C9.62,10.806,9.008,11.39,8.37,11.938C7.849,12.388,7.094,12.474,6.46,12.239z M0.183,13.962c0.504,0.503,1.008,1.005,1.512,1.51
		l3.896-3.897c-0.088-0.062-0.171-0.13-0.247-0.205l-0.615-0.618l-0.666-0.666H4.06c-0.233-0.232-0.615-0.232-0.849-0.003
		l-3.036,3.037C-0.058,13.353-0.054,13.729,0.183,13.962z"/>
</g>
</svg>
