<?xml version="1.0" encoding="utf-8"?>
<!-- Generator: Adobe Illustrator 19.0.0, SVG Export Plug-In . SVG Version: 6.00 Build 0)  -->
<svg version="1.1" id="Layer_1" xmlns="http://www.w3.org/2000/svg" xmlns:xlink="http://www.w3.org/1999/xlink" x="0px" y="0px"
	 viewBox="-288 90 382 382" style="enable-background:new -288 90 382 382;" xml:space="preserve">
<style type="text/css">
	.st0{fill:#FFFFFF;}
	.st1{fill:#0077B7;}
</style>
<rect x="-266" y="120" class="st0" width="336" height="323"/>
<path class="st1" d="M59.4,90h-312.9c-19.1,0-34.6,15.5-34.6,34.6v312.9c0,19.1,15.5,34.6,34.6,34.6H59.4
	c19.1,0,34.6-15.5,34.6-34.6V124.6C94,105.5,78.5,90,59.4,90z M-169.8,419.8c0,5.6-4.5,10.1-10.1,10.1h-42.8
	c-5.6,0-10.1-4.5-10.1-10.1V240.4c0-5.6,4.5-10.1,10.1-10.1h42.8c5.6,0,10.1,4.5,10.1,10.1V419.8z M-201.3,213.4
	c-22.5,0-40.7-18.2-40.7-40.7c0-22.5,18.2-40.7,40.7-40.7s40.7,18.2,40.7,40.7C-160.6,195.2-178.8,213.4-201.3,213.4z M53.9,420.7
	c0,5.1-4.1,9.2-9.2,9.2H-1.3c-5.1,0-9.2-4.1-9.2-9.2v-84.2c0-12.6,3.7-55-32.8-55c-28.3,0-34.1,29.1-35.2,42.1v97.1
	c0,5.1-4.1,9.2-9.2,9.2h-44.4c-5.1,0-9.2-4.1-9.2-9.2V239.6c0-5.1,4.1-9.2,9.2-9.2h44.4c5.1,0,9.2,4.1,9.2,9.2v15.7
	c10.5-15.8,26.1-27.9,59.3-27.9c73.6,0,73.1,68.7,73.1,106.5L53.9,420.7L53.9,420.7z"/>
</svg>
